# xmcd
#
# Track frame offsets:
#	150
#	10311
#	26475
#	45462
#	59579
#	74642
#	91286
#	105442
#	119892
#	136060
#
# Disc length: 2006 seconds
#
# Revision: 0
# Processed by: cddbd v1.5.1PL2 Copyright (c) Steve Scherf et al.
# Submitted via: EasyCDDAExtractor 8.1.2.3
#
DISCID=8907d40a
DTITLE=Monsieur R - Black album
DYEAR=2006
DGENRE=Rap
TTITLE0=J'ai La Haine
TTITLE1=Monsieur Fric
TTITLE2=Ennemi Pubic Feat Jacques Mesrine
TTITLE3=Passion Du Crime Feat Illegal
TTITLE4=Guetto Republicain
TTITLE5=R L'insolent (Le Roi Du 77)
TTITLE6=Rebelion
TTITLE7=Revolutionnaire Feat Youssouph
TTITLE8=Braquage Verbale Feat Illegal
TTITLE9=R
EXTD=
EXTT0=
EXTT1=
EXTT2=
EXTT3=
EXTT4=
EXTT5=
EXTT6=
EXTT7=
EXTT8=
EXTT9=
PLAYORDER=
